# Blender v2.79 (sub 0) OBJ File: 'untitled.blend'
# www.blender.org
mtllib tree03.mtl
o tree03_Cylinder.003
v -3.591169 -0.107573 -2.045637
v -3.508753 1.003096 -2.044419
v -3.470191 -0.107573 -1.957740
v -3.398250 1.003096 -1.964134
v -3.516400 -0.107573 -1.815521
v -3.440459 1.003096 -1.834229
v -3.665938 -0.107573 -1.815521
v -3.577048 1.003096 -1.834229
v -3.712148 -0.107573 -1.957740
v -3.619256 1.003096 -1.964134
v -3.356025 1.901285 -1.935851
v -3.438586 1.901285 -1.995835
v -3.387561 1.901285 -1.838795
v -3.489611 1.901285 -1.838795
v -3.521147 1.901285 -1.935851
v -3.358386 2.566403 -1.970918
v -3.435374 2.566403 -2.026853
v -3.387793 2.566403 -1.880413
v -3.482955 2.566403 -1.880413
v -3.512362 2.566403 -1.970918
v -3.405414 1.391515 -1.912975
v -3.446691 1.433713 -1.979890
v -3.409979 1.443508 -1.840601
v -3.454079 1.517839 -1.862787
v -3.476768 1.511786 -1.948872
v -3.057902 1.618289 -1.983258
v -3.096682 1.657933 -2.046124
v -3.062191 1.667135 -1.915264
v -3.103622 1.736969 -1.936106
v -3.124938 1.731281 -2.016982
v -2.718531 1.852767 -2.181540
v -2.759345 1.886756 -2.229884
v -2.713342 1.894702 -2.123465
v -2.750951 1.954609 -2.135916
v -2.779382 1.949697 -2.201686
v -3.427906 1.926050 -1.937724
v -3.481011 1.880289 -1.952148
v -3.389560 1.899093 -1.883639
v -3.418966 1.836672 -1.864637
v -3.475486 1.825050 -1.906977
v -3.578602 2.040403 -1.767949
v -3.625050 2.000378 -1.780565
v -3.545062 2.016825 -1.720644
v -3.570782 1.962228 -1.704024
v -3.620217 1.952063 -1.741057
v -3.723152 2.200789 -1.593083
v -3.760130 2.179573 -1.603755
v -3.713042 2.190424 -1.551589
v -3.743771 2.162803 -1.536618
v -3.772872 2.156096 -1.568858
v -3.313405 3.138762 -1.318040
v -3.792356 3.277236 -2.470706
v -3.096610 3.277236 -2.473531
v -2.760411 3.138761 -1.907456
v -3.560711 3.633373 -2.079171
v -3.485406 2.480141 -1.461495
v -2.974197 2.396003 -1.909982
v -4.124666 2.720874 -1.907456
v -3.612618 2.264475 -2.116883
v -3.734984 2.720875 -2.615525
v -4.032731 3.166424 -1.647793
v -3.055109 2.690373 -2.521937
v -3.217754 3.565005 -1.829998
v -2.665642 1.849413 -1.726105
v -2.820656 2.507961 -2.554982
v -2.267376 2.235387 -2.282862
v -2.854217 1.685419 -2.460342
v -2.569736 1.614187 -2.096007
v -2.283030 2.287562 -1.822048
v -2.619921 2.264613 -1.605840
v -3.202671 2.077812 -1.980502
v -2.620703 2.084529 -2.655553
v -3.149199 2.240409 -2.514429
v -2.916562 2.743186 -2.185080
v -2.928397 2.599474 -1.778554
v -3.957535 2.497797 -2.049076
v -3.602638 2.089943 -1.789094
v -3.519632 2.591416 -1.494161
v -4.167372 2.732981 -1.424815
v -3.494806 2.037773 -1.244870
v -3.795017 2.471622 -1.040682
v -4.030213 2.120814 -2.022470
v -4.054652 1.836158 -1.532397
v -4.015921 2.071263 -1.097623
v -4.388258 2.187182 -1.638659
v -4.278938 2.622279 -1.743859
v -3.679875 0.003760 -2.080335
v -3.679492 0.074841 -2.066804
v -3.680941 0.102043 -1.941787
v -3.618301 0.111643 -1.815065
v -3.530227 -0.052795 -1.982268
v -3.808327 0.001361 -2.167824
v -3.793316 0.056816 -2.094806
v -3.676474 0.113248 -1.873314
v -3.786162 0.065753 -1.721360
v -3.830592 0.001552 -1.667444
v -3.848639 0.001297 -1.695014
v -3.903308 -0.000093 -1.668605
v -3.481637 -0.068271 -1.950814
v -3.519531 0.113496 -1.846852
v -3.305866 -0.040387 -1.832515
v -3.507214 0.111742 -1.933898
v -3.230559 -0.024256 -1.753301
v -3.222804 0.025046 -1.768685
v -3.672520 -0.068271 -1.944525
v -3.666247 -0.068271 -1.880030
v -3.747498 0.073932 -1.679944
v -3.785517 -0.000546 -1.722704
v -3.600063 -0.068271 -1.809099
v -3.745936 -0.013456 -1.663121
v -3.777596 0.003080 -2.078761
v -3.606655 0.108190 -1.977652
v -3.529210 -0.068271 -1.830691
v -3.571478 0.157788 -2.045346
v -3.453002 0.157788 -1.959268
v -3.498256 0.157788 -1.819991
v -3.644701 0.157788 -1.819991
v -3.689954 0.157788 -1.959268
vn 0.5872 -0.0427 -0.8083
vn 0.9494 -0.0597 0.3085
vn 0.0000 0.0168 0.9999
vn 0.9497 -0.0544 0.3086
vn -0.9479 0.0811 0.3080
vn -0.5872 0.0445 -0.8082
vn -0.9507 0.0288 0.3089
vn -0.5854 0.0893 -0.8058
vn 0.5878 -0.0022 -0.8090
vn 0.0000 0.0051 1.0000
vn -0.9469 0.0937 0.3077
vn 0.9509 0.0197 0.3090
vn -0.5874 -0.0349 -0.8085
vn 0.0000 0.0625 0.9980
vn 0.5873 -0.0405 -0.8084
vn -0.5452 0.1535 -0.8241
vn 0.0157 0.2945 0.9555
vn 0.3251 -0.6965 -0.6397
vn -0.5171 0.8525 0.0763
vn 0.5394 -0.6674 0.5135
vn -0.3257 0.2381 -0.9150
vn 0.2664 0.3886 0.8821
vn 0.1687 -0.7620 -0.6252
vn -0.4859 0.8680 0.1021
vn 0.6646 -0.6086 0.4335
vn -0.3397 -0.7499 0.5677
vn -0.8193 -0.4098 -0.4010
vn 0.6824 -0.1011 0.7240
vn -0.3364 0.6152 -0.7130
vn -0.1897 -0.8525 0.4871
vn 0.5916 0.8060 -0.0177
vn 0.6934 0.7175 -0.0666
vn -0.8715 -0.3034 -0.3854
vn 0.6210 -0.1293 0.7731
vn -0.2292 0.6028 -0.7643
vn 0.5544 0.1527 -0.8181
vn -0.1814 0.9605 -0.2111
vn -0.9296 -0.1752 0.3242
vn 0.6000 0.3061 -0.7391
vn 0.7219 0.0959 0.6853
vn -0.1016 0.9718 -0.2126
vn -0.4078 0.8898 0.2050
vn -0.8071 -0.0236 -0.5900
vn -0.1261 0.9802 0.1530
vn -0.0167 0.1887 0.9819
vn -0.4354 0.0548 -0.8985
vn -0.1524 0.3162 0.9364
vn 0.5294 0.1435 -0.8361
vn 0.7201 -0.3074 -0.6220
vn -0.1228 -0.9905 -0.0626
vn -0.2933 0.9521 0.0858
vn -0.7959 0.0045 -0.6054
vn -0.4013 0.0147 -0.9158
vn 0.6938 0.1481 0.7047
vn -0.0200 0.1924 0.9811
vn -0.7980 -0.0491 0.6006
vn -0.8004 -0.0560 0.5968
vn 0.7462 0.1206 -0.6547
vn 0.0238 0.7938 -0.6077
vn -0.2633 0.0993 0.9596
vn 0.2807 0.9596 0.0204
vn 0.5347 0.1541 -0.8308
vn 0.5873 -0.0427 -0.8083
vn 0.1008 -0.9507 0.2933
vn 0.7134 -0.2076 0.6693
vn -0.4179 -0.0878 0.9042
vn 0.6092 0.5498 0.5715
vn -0.2371 0.7776 0.5823
vn -0.7564 0.6401 -0.1347
vn -0.0027 0.7406 -0.6720
vn 0.6483 0.7330 -0.2057
vn 0.3980 0.8631 -0.3110
vn -0.2727 0.7638 0.5850
vn 0.8661 0.1016 -0.4895
vn -0.0039 0.2515 -0.9678
vn -0.9198 0.3212 -0.2254
vn 0.1398 0.0912 -0.9860
vn -0.8755 0.0351 -0.4819
vn -0.6190 -0.2962 0.7274
vn 0.5957 -0.3164 0.7383
vn 0.9303 -0.2669 -0.2514
vn 0.3168 -0.8377 -0.4448
vn 0.0612 -0.7288 -0.6820
vn -0.6969 -0.6059 -0.3836
vn -0.5365 -0.7652 0.3559
vn 0.5309 -0.2892 0.7966
vn -0.8972 0.4239 0.1237
vn -0.5702 0.6182 -0.5410
vn 0.5457 0.7640 -0.3443
vn -0.9147 0.4029 0.0311
vn 0.3676 0.6709 0.6440
vn 0.4304 0.8470 0.3120
vn 0.6082 0.7908 -0.0689
vn 0.5604 0.4324 -0.7063
vn -0.2213 0.1252 -0.9671
vn -0.3197 -0.2588 -0.9115
vn -0.8500 -0.4742 -0.2295
vn -0.5287 -0.0500 0.8473
vn -0.4860 -0.1934 0.8523
vn -0.5382 -0.8005 0.2637
vn -0.5056 -0.7814 0.3658
vn 0.6870 -0.6014 -0.4078
vn 0.6383 -0.4894 -0.5941
vn 0.7027 -0.5036 0.5025
vn 0.9054 -0.4172 0.0780
vn 0.9791 -0.0454 -0.1983
vn 0.4651 -0.1512 -0.8722
vn 0.0408 0.9395 -0.3402
vn -0.9306 0.2883 0.2254
vn -0.8094 0.1009 0.5786
vn -0.7258 -0.5760 0.3761
vn -0.6148 0.2320 0.7538
vn -0.6890 -0.0021 -0.7247
vn -0.7204 0.0904 -0.6877
vn 0.2460 -0.2682 0.9314
vn 0.2361 0.8945 0.3797
vn -0.5866 -0.6872 -0.4284
vn 0.0760 -0.8799 0.4690
vn 0.7846 0.2834 0.5514
vn 0.1737 0.9394 -0.2955
vn 0.2029 -0.8511 -0.4842
vn 0.4089 -0.8972 -0.1670
vn 0.7404 0.2454 -0.6257
usemtl Log
s off
f 114//1 2//1 4//1 115//1
f 115//2 4//2 6//2 116//2
f 116//3 6//3 8//3 117//3
f 6//4 4//4 11//4 13//4
f 117//5 8//5 10//5 118//5
f 118//6 10//6 2//6 114//6
f 15//7 14//7 19//7 20//7
f 2//8 10//8 15//8 12//8
f 4//9 2//9 12//9 11//9
f 8//10 6//10 13//10 14//10
f 10//11 8//11 14//11 15//11
f 13//12 11//12 16//12 18//12
f 12//13 15//13 20//13 17//13
f 14//14 13//14 18//14 19//14
f 11//15 12//15 17//15 16//15
f 30//16 35//16 32//16 27//16
f 23//17 28//17 29//17 24//17
f 22//18 27//18 26//18 21//18
f 24//19 29//19 30//19 25//19
f 21//20 26//20 28//20 23//20
f 25//21 30//21 27//21 22//21
f 28//22 33//22 34//22 29//22
f 27//23 32//23 31//23 26//23
f 29//24 34//24 35//24 30//24
f 26//25 31//25 33//25 28//25
f 44//26 49//26 50//26 45//26
f 40//27 45//27 42//27 37//27
f 38//28 43//28 44//28 39//28
f 37//29 42//29 41//29 36//29
f 39//30 44//30 45//30 40//30
f 36//31 41//31 43//31 38//31
f 41//32 46//32 48//32 43//32
f 45//33 50//33 47//33 42//33
f 43//34 48//34 49//34 44//34
f 42//35 47//35 46//35 41//35
f 88//36 87//36 92//36
f 89//37 112//37 88//37
f 111//38 93//38 92//38
f 87//39 112//39 91//39
f 109//40 90//40 110//40
f 89//41 88//41 93//41
f 107//42 95//42 98//42
f 94//43 106//43 95//43
f 90//44 94//44 107//44
f 110//45 107//45 96//45
f 95//46 97//46 98//46
f 100//47 103//47 104//47
f 101//48 102//48 104//48
f 101//49 104//49 103//49
f 96//50 97//50 108//50 110//50
f 95//51 107//51 94//51
f 95//52 106//52 108//52
f 95//53 108//53 97//53
f 107//54 110//54 90//54
f 98//55 96//55 107//55
f 105//56 89//56 93//56
f 93//57 111//57 105//57
f 88//58 112//58 87//58
f 92//59 93//59 88//59
f 103//60 100//60 113//60
f 104//61 102//61 100//61
f 99//62 102//62 101//62
f 9//6 118//6 114//6 1//6
f 7//5 117//5 118//5 9//5
f 5//3 116//3 117//3 7//3
f 3//2 115//2 116//2 5//2
f 1//63 114//63 115//63 3//63
usemtl Leaves
f 59//64 57//64 56//64
f 57//65 54//65 51//65
f 56//66 51//66 61//66
f 51//67 54//67 63//67
f 61//68 51//68 55//68
f 52//69 61//69 55//69
f 53//70 52//70 55//70
f 54//71 53//71 63//71
f 63//72 53//72 55//72
f 55//73 51//73 63//73
f 54//74 62//74 53//74
f 60//75 52//75 53//75
f 58//76 61//76 52//76
f 62//77 60//77 53//77
f 60//78 58//78 52//78
f 58//79 56//79 61//79
f 56//80 57//80 51//80
f 57//81 62//81 54//81
f 57//82 59//82 62//82
f 59//83 60//83 62//83
f 59//84 58//84 60//84
f 59//85 56//85 58//85
f 64//86 69//86 70//86
f 71//87 75//87 74//87
f 65//88 73//88 74//88
f 66//89 65//89 74//89
f 73//90 71//90 74//90
f 70//91 69//91 75//91
f 75//92 69//92 74//92
f 69//93 66//93 74//93
f 72//94 65//94 66//94
f 72//95 73//95 65//95
f 72//96 67//96 73//96
f 73//97 67//97 71//97
f 71//98 70//98 75//98
f 71//99 64//99 70//99
f 68//100 71//100 67//100
f 68//101 64//101 71//101
f 66//102 67//102 72//102
f 66//103 68//103 67//103
f 68//104 69//104 64//104
f 68//105 66//105 69//105
f 77//106 78//106 80//106
f 77//107 82//107 76//107
f 76//108 86//108 79//108
f 86//109 85//109 79//109
f 85//110 84//110 79//110
f 85//111 83//111 84//111
f 84//112 81//112 79//112
f 76//113 85//113 86//113
f 76//114 82//114 85//114
f 80//115 81//115 84//115
f 78//116 79//116 81//116
f 82//117 83//117 85//117
f 83//118 80//118 84//118
f 80//119 78//119 81//119
f 78//120 76//120 79//120
f 77//121 83//121 82//121
f 77//122 80//122 83//122
f 78//123 77//123 76//123
