<svg xmlns="http://www.w3.org/2000/svg" xmlns:xlink="http://www.w3.org/1999/xlink" version="1.1" x="0px" y="0px" viewBox="0 0 139 139" enable-background="new 0 0 139 139" xml:space="preserve"><path d="M65.201,95.916H35.455V78.293c-4.907-4.523-7.694-10.849-7.694-17.57c0-13.186,10.728-23.913,23.913-23.913  c10.765,0,20.254,7.251,23.074,17.634l0.088,0.32l0.178,3.921l7.217,10.12l-6.344,4.608v3.524c0,4.244-3.453,7.698-7.7,7.698h-2.985  L65.201,95.916L65.201,95.916z M41.455,89.916h17.746V78.637h8.985c0.938,0,1.7-0.763,1.7-1.699v-6.58l4.006-2.91l-4.794-6.72  l-0.227-5.016c-2.214-7.612-9.241-12.9-17.198-12.9c-9.877,0-17.913,8.036-17.913,17.913c0,5.4,2.402,10.458,6.591,13.877l1.103,0.9  L41.455,89.916L41.455,89.916z"/><path d="M88.913,79.605l-4.242-4.242c2.706-2.707,2.706-7.111-0.001-9.819l4.244-4.242C93.959,66.349,93.959,74.561,88.913,79.605z"/><path d="M97.012,85.994l-4.242-4.242c6.229-6.229,6.229-16.366,0-22.596l4.242-4.242C105.579,63.483,105.579,77.426,97.012,85.994z"/><path d="M106.316,91.984l-4.244-4.242c9.531-9.533,9.531-25.043,0.002-34.575l4.242-4.242  C118.188,60.795,118.188,80.111,106.316,91.984z"/></svg>
