<svg xmlns="http://www.w3.org/2000/svg" xmlns:xlink="http://www.w3.org/1999/xlink" version="1.1" x="0px" y="0px" viewBox="0 0 100 100" enable-background="new 0 0 100 100" xml:space="preserve"><g><path d="M66.19,32.216c-0.619-1.131-2.843-5.185-3.462-6.313c-0.238-0.434-0.557-0.812-0.948-1.136   c-1.173-0.97-2.996-1.444-5.234-1.444c0,0-0.001,0-0.002,0c-4.012,0-9.358,1.522-14.688,4.446   C32.56,32.866,26.828,40.294,29.06,44.364l0.002,0.007c0.619,1.129,2.84,5.18,3.46,6.312c2.231,4.068,11.577,3.231,20.875-1.869   c9.297-5.1,15.026-12.531,12.793-16.6V32.216z M30.954,43.326c-1.223-2.23,2.821-8.662,11.94-13.663   c4.772-2.617,9.874-4.18,13.65-4.18c2.219,0,3.782,0.532,4.291,1.458c1.223,2.23-2.821,8.662-11.94,13.664   c-4.771,2.615-9.875,4.177-13.65,4.177C33.025,44.782,31.461,44.251,30.954,43.326z M34.417,49.643l-1.605-2.926   c0.464,0.094,0.954,0.162,1.478,0.196l2.165,3.95C35.426,50.623,34.723,50.202,34.417,49.643z M38.216,51.081l-2.282-4.157   c0.506-0.022,1.032-0.067,1.571-0.131l2.329,4.245C39.263,51.078,38.712,51.097,38.216,51.081z M41.382,50.863l-2.362-4.305   c0.481-0.09,0.97-0.193,1.471-0.314l2.382,4.349C42.36,50.704,41.864,50.792,41.382,50.863z M44.322,50.237l-2.397-4.376   c0.461-0.133,0.929-0.277,1.401-0.438l2.408,4.391C45.253,49.969,44.783,50.112,44.322,50.237z M47.11,49.33l-2.412-4.396   c0.517-0.198,1.04-0.417,1.565-0.64l2.417,4.41C48.149,48.929,47.625,49.137,47.11,49.33z M49.999,48.109l-2.422-4.417   c0.571-0.271,1.144-0.556,1.717-0.86l2.422,4.421C51.138,47.557,50.565,47.842,49.999,48.109z M52.981,46.561l-2.423-4.421   c0.563-0.321,1.113-0.652,1.65-0.987l2.422,4.417C54.101,45.904,53.553,46.234,52.981,46.561z M55.836,44.777l-2.418-4.409   c0.473-0.319,0.936-0.645,1.38-0.975l2.413,4.396C56.772,44.121,56.313,44.45,55.836,44.777z M58.357,42.889l-2.407-4.392   c0.389-0.312,0.76-0.629,1.123-0.947l2.4,4.375C59.121,42.245,58.748,42.567,58.357,42.889z M60.551,40.896l-2.385-4.349   c0.37-0.356,0.722-0.713,1.055-1.068l2.362,4.304C61.262,40.149,60.923,40.519,60.551,40.896z M62.561,38.571l-2.329-4.245   c0.346-0.42,0.664-0.839,0.953-1.254l2.281,4.157C63.213,37.657,62.902,38.11,62.561,38.571z M64.229,35.625l-2.166-3.947   c0.188-0.342,0.349-0.679,0.492-1.011c0.07-0.067,0.141-0.136,0.211-0.201l1.53,2.787C64.604,33.81,64.579,34.63,64.229,35.625z"/><path d="M65.188,52.166c0.316-0.453,0.206-1.076-0.248-1.392c-0.452-0.317-1.076-0.206-1.392,0.248   c-5.845,8.373-15.523,8.871-15.62,8.875c-0.551,0.023-0.98,0.488-0.958,1.039c0.022,0.538,0.464,0.96,0.998,0.96   c0.013,0,0.026,0,0.039-0.001C48.443,61.878,58.76,61.375,65.188,52.166z"/><path d="M63.985,63.522c-5.596,4.787-11.655,4.582-11.711,4.579c-0.541-0.018-1.018,0.4-1.045,0.951   c-0.026,0.552,0.399,1.021,0.951,1.047c0.029,0.001,0.128,0.005,0.288,0.005c1.369,0,7.245-0.296,12.817-5.063   c0.42-0.359,0.469-0.99,0.11-1.41C65.036,63.212,64.405,63.164,63.985,63.522z"/><path d="M60.147,74.667c-4.676,1.743-8.814,1.167-8.856,1.161c-0.554-0.083-1.055,0.298-1.135,0.843   c-0.081,0.546,0.295,1.054,0.84,1.135c0.076,0.012,0.859,0.124,2.109,0.124c1.83,0,4.661-0.24,7.74-1.388   c0.518-0.193,0.781-0.769,0.588-1.286C61.241,74.736,60.663,74.473,60.147,74.667z"/><path d="M68.617,28.202c-0.355-0.208-0.816-0.091-1.027,0.266c-0.21,0.357-0.091,0.816,0.266,1.027   c0.038,0.022,3.794,2.308,2.192,7.751c-0.117,0.397,0.11,0.814,0.507,0.931c0.071,0.021,0.142,0.031,0.212,0.031   c0.324,0,0.623-0.211,0.719-0.538C73.416,31.117,68.665,28.231,68.617,28.202z"/><path d="M34.586,56.458c-4.419,0-5.994-3.235-6.06-3.375c-0.173-0.375-0.618-0.536-0.993-0.366   c-0.376,0.173-0.542,0.618-0.369,0.995c0.08,0.173,2.013,4.246,7.422,4.246c0.414,0,0.75-0.336,0.75-0.75S35,56.458,34.586,56.458z   "/></g></svg>
