<svg xmlns="http://www.w3.org/2000/svg" xmlns:xlink="http://www.w3.org/1999/xlink" version="1.1" x="0px" y="0px" viewBox="0 0 100 100" style="enable-background:new 0 0 100 100;" xml:space="preserve"><g><path d="M11.4,24.6c0,5.3,4.3,9.7,9.7,9.7c5.3,0,9.7-4.3,9.7-9.7s-4.3-9.7-9.7-9.7C15.8,14.9,11.4,19.3,11.4,24.6z M26.8,24.6   c0,3.1-2.5,5.7-5.7,5.7c-3.1,0-5.7-2.5-5.7-5.7s2.5-5.7,5.7-5.7C24.2,18.9,26.8,21.5,26.8,24.6z"/><path d="M12.2,84.9c0,1.1,0.9,2,2,2s2-0.9,2-2V50.1c0-1.1-0.9-2-2-2s-2,0.9-2,2v10.7H9.6V43.7c0-2.4,2-4.4,4.4-4.4h16.2   c2.4,0,4.4,2,4.4,4.4v17.1H32V50.1c0-1.1-0.9-2-2-2s-2,0.9-2,2v34.8c0,1.1,0.9,2,2,2s2-0.9,2-2V64.8h4.5c1.1,0,2-0.9,2-2V43.7   c0-4.6-3.7-8.4-8.4-8.4H14c-4.6,0-8.4,3.7-8.4,8.4v19.1c0,1.1,0.9,2,2,2h4.6V84.9z"/><path d="M20.1,67.5v17.5c0,1.1,0.9,2,2,2s2-0.9,2-2V67.5c0-1.1-0.9-2-2-2S20.1,66.4,20.1,67.5z"/><path d="M55.3,58.4h20.3c4.4,0,7.9-3.6,7.9-7.9V16.9c0-4.4-3.6-7.9-7.9-7.9H55.3c-3.7,0-6.8,2.5-7.7,5.9H36.5   c-0.9,0-1.7,0.6-1.9,1.4c-0.3,0.8,0.1,1.8,0.8,2.2l12,7.9v23.9C47.4,54.8,50.9,58.4,55.3,58.4z M43.1,18.9h6.2c1.1,0,2-0.9,2-2   c0-2.2,1.8-3.9,3.9-3.9h20.3c2.2,0,3.9,1.8,3.9,3.9v33.5c0,2.2-1.8,3.9-3.9,3.9H55.3c-2.2,0-3.9-1.8-3.9-3.9v-25   c0-0.7-0.3-1.3-0.9-1.7L43.1,18.9z"/><path d="M57.2,22.6h15.8c1.1,0,2-0.9,2-2s-0.9-2-2-2H57.2c-1.1,0-2,0.9-2,2S56.1,22.6,57.2,22.6z"/><path d="M57.2,31.3h15.8c1.1,0,2-0.9,2-2s-0.9-2-2-2H57.2c-1.1,0-2,0.9-2,2S56.1,31.3,57.2,31.3z"/><path d="M57.2,40.1h15.8c1.1,0,2-0.9,2-2s-0.9-2-2-2H57.2c-1.1,0-2,0.9-2,2S56.1,40.1,57.2,40.1z"/><path d="M57.2,48.8h15.8c1.1,0,2-0.9,2-2s-0.9-2-2-2H57.2c-1.1,0-2,0.9-2,2S56.1,48.8,57.2,48.8z"/><path d="M93.5,83.3l-10-6.9v-9.3c0-3.5-2.8-6.3-6.3-6.3H51.9c-3.5,0-6.3,2.8-6.3,6.3v17.6c0,3.5,2.8,6.3,6.3,6.3h25.3   c2.7,0,5-1.7,5.9-4.1h9.3c0.9,0,1.6-0.6,1.9-1.4C94.6,84.7,94.3,83.8,93.5,83.3z M81.5,82.9c-1.1,0-1.9,0.8-2,1.9   C79.4,86,78.5,87,77.3,87H51.9c-1.3,0-2.3-1-2.3-2.3V67.1c0-1.3,1-2.3,2.3-2.3h25.3c1.3,0,2.3,1,2.3,2.3v10.4   c0,0.7,0.3,1.3,0.9,1.6l5.6,3.8H81.5z"/><path d="M59.1,75.1c0-0.1-0.1-0.2-0.2-0.4c-0.1-0.1-0.2-0.2-0.3-0.3c-0.1-0.1-0.2-0.2-0.3-0.3c-0.1-0.1-0.2-0.1-0.3-0.2   c-0.1,0-0.3-0.1-0.4-0.1c-0.3,0-0.5,0-0.8,0c-0.1,0-0.3,0.1-0.4,0.1s-0.2,0.1-0.4,0.2c-0.1,0.1-0.2,0.2-0.3,0.3   c-0.1,0.1-0.2,0.2-0.3,0.3s-0.1,0.2-0.2,0.4c0,0.1-0.1,0.2-0.1,0.4c0,0.1,0,0.3,0,0.4c0,0.1,0,0.3,0,0.4c0,0.1,0.1,0.3,0.1,0.4   c0.1,0.1,0.1,0.2,0.2,0.3c0.1,0.1,0.2,0.2,0.3,0.3c0.1,0.1,0.2,0.2,0.3,0.3c0.1,0.1,0.2,0.1,0.4,0.2c0.1,0.1,0.2,0.1,0.4,0.1   c0.1,0,0.3,0,0.4,0c0.1,0,0.3,0,0.4,0c0.1,0,0.3-0.1,0.4-0.1c0.1,0,0.2-0.1,0.3-0.2c0.1-0.1,0.2-0.2,0.3-0.3   c0.1-0.1,0.2-0.2,0.3-0.3c0.1-0.1,0.1-0.2,0.2-0.3c0.1-0.1,0.1-0.3,0.1-0.4c0-0.1,0-0.3,0-0.4c0-0.1,0-0.3,0-0.4   C59.2,75.4,59.1,75.3,59.1,75.1z"/><path d="M66.2,74.2c-0.1-0.1-0.2-0.1-0.4-0.2c-0.1,0-0.3-0.1-0.4-0.1c-0.3,0-0.5,0-0.8,0c-0.1,0-0.3,0.1-0.4,0.1s-0.2,0.1-0.3,0.2   c-0.1,0.1-0.2,0.2-0.3,0.3c-0.1,0.1-0.2,0.2-0.3,0.3c-0.1,0.1-0.1,0.2-0.2,0.4c0,0.1-0.1,0.2-0.1,0.4c0,0.1,0,0.3,0,0.4   c0,0.1,0,0.3,0,0.4c0,0.1,0.1,0.3,0.1,0.4c0.1,0.1,0.1,0.2,0.2,0.3c0.1,0.1,0.2,0.2,0.3,0.3c0.1,0.1,0.2,0.2,0.3,0.3   c0.1,0.1,0.2,0.1,0.3,0.2c0.1,0.1,0.3,0.1,0.4,0.1c0.1,0,0.3,0,0.4,0s0.3,0,0.4,0c0.1,0,0.3-0.1,0.4-0.1c0.1,0,0.2-0.1,0.4-0.2   c0.1-0.1,0.2-0.2,0.3-0.3c0.4-0.4,0.6-0.9,0.6-1.4c0-0.5-0.2-1-0.6-1.4C66.4,74.4,66.3,74.3,66.2,74.2z"/><path d="M74.7,75.1c0-0.1-0.1-0.2-0.2-0.4c-0.1-0.1-0.2-0.2-0.3-0.3c-0.7-0.8-2.1-0.7-2.8,0c-0.1,0.1-0.2,0.2-0.2,0.3   c-0.1,0.1-0.1,0.2-0.2,0.4s-0.1,0.2-0.1,0.4c0,0.1,0,0.3,0,0.4c0,0.1,0,0.3,0,0.4c0,0.1,0.1,0.3,0.1,0.4c0,0.1,0.1,0.2,0.2,0.3   c0.1,0.1,0.1,0.2,0.2,0.3c0.1,0.1,0.2,0.2,0.3,0.3c0.1,0.1,0.2,0.1,0.3,0.2c0.1,0.1,0.3,0.1,0.4,0.1c0.1,0,0.3,0,0.4,0s0.3,0,0.4,0   c0.1,0,0.3-0.1,0.4-0.1c0.1,0,0.2-0.1,0.4-0.2c0.1-0.1,0.2-0.2,0.3-0.3c0.1-0.1,0.2-0.2,0.3-0.3c0.1-0.1,0.1-0.2,0.2-0.3   c0.1-0.1,0.1-0.3,0.1-0.4c0-0.1,0-0.3,0-0.4c0-0.1,0-0.3,0-0.4C74.8,75.4,74.8,75.3,74.7,75.1z"/></g></svg>
