<svg xmlns="http://www.w3.org/2000/svg" viewBox="0 0 100 100" x="0px" y="0px"><path d="m19.527 14.315c-.001 2.533-2.306 4.837-4.837 4.837-2.533 0-4.837-2.304-4.837-4.837-.001-2.534 2.304-4.843 4.837-4.843 2.534 0 4.843 2.307 4.837 4.843" color="#000"/><path d="m9.359 21.06c-2.412 0-4.359 1.965-4.359 4.378 0 .272.011.534.057.793l3.585 18.15c.38 1.763 2.186 3.302 4.227 3.302l3.641 0c2.04 0 3.847-1.539 4.227-3.302l3.566-18.15c.046-.259.075-.521.075-.793 0-2.412-1.947-4.378-4.359-4.378-3.553 0-7.107 0-10.661 0" color="#000"/><path d="m43.07 14.315c-.001 2.533-2.306 4.837-4.837 4.837-2.533 0-4.837-2.304-4.837-4.837-.001-2.534 2.304-4.843 4.837-4.843 2.534 0 4.843 2.307 4.837 4.843" color="#000"/><path d="m32.9 21.06c-2.412 0-4.359 1.965-4.359 4.378 0 .272.011.534.057.793l3.585 18.15c.38 1.763 2.186 3.302 4.227 3.302l3.641 0c2.04 0 3.847-1.539 4.227-3.302l3.566-18.15c.046-.259.075-.521.075-.793 0-2.412-1.947-4.378-4.359-4.378-3.553 0-7.107 0-10.661 0" color="#000"/><path d="m66.61 14.315c-.001 2.533-2.306 4.837-4.837 4.837-2.533 0-4.837-2.304-4.837-4.837-.001-2.534 2.304-4.843 4.837-4.843 2.534 0 4.843 2.307 4.837 4.843" color="#000"/><path d="m56.44 21.06c-2.412 0-4.359 1.965-4.359 4.378 0 .272.011.534.057.793l3.585 18.15c.38 1.763 2.186 3.302 4.227 3.302l3.641 0c2.04 0 3.847-1.539 4.227-3.302l3.566-18.15c.046-.259.075-.521.075-.793 0-2.412-1.947-4.378-4.359-4.378-3.553 0-7.107 0-10.661 0" color="#000"/><path d="m90.15 14.315c-.001 2.533-2.306 4.837-4.837 4.837-2.533 0-4.837-2.304-4.837-4.837-.001-2.534 2.304-4.843 4.837-4.843 2.534 0 4.843 2.307 4.837 4.843" color="#000"/><path d="m79.981 21.06c-2.412 0-4.359 1.965-4.359 4.378 0 .272.011.534.057.793l3.585 18.15c.38 1.763 2.186 3.302 4.227 3.302l3.641 0c2.04 0 3.847-1.539 4.227-3.302l3.566-18.15c.046-.259.075-.521.075-.793 0-2.412-1.947-4.378-4.359-4.378-3.553 0-7.107 0-10.661 0" color="#000"/><path d="m36.572 62.26c-1.038.471-1.497 1.696-1.026 2.733l3.17 6.98-.742.337-2.149-4.73c-.471-1.038-1.696-1.497-2.733-1.026-1.038.471-1.497 1.696-1.026 2.733l3.03 6.673-.754.342-1.817-4c-.471-1.037-1.696-1.497-2.733-1.026-1.037.471-1.498 1.695-.771 3.296l5.227 11.508c2.224 4.89 9.31 7.552 15.329 4.82 6.02-2.735 8.678-9.821 5.945-15.84l.012-.006-5.471-12.01c-.727-1.601-.865-1.875-1.902-1.403-1.818.826-1.944 2.886-1.472 3.923l2.323 5.114-.754.342-7.509-16.533c-.471-1.038-1.695-1.497-2.733-1.026-1.038.472-1.497 1.696-1.026 2.733l6.237 13.731-.754.342-3.17-6.98c-.47-1.037-1.696-1.497-2.733-1.026"/></svg>
